<svg width="309" height="307" viewBox="0 0 309 307" fill="none" xmlns="http://www.w3.org/2000/svg">
<rect width="309" height="306.659" fill="#1D1D1D"/>
<path d="M80.1382 248.925V204.699L68.7172 208.911V202.35L79.3282 198.3H87.0232V248.925H95.8522V255H69.5272V248.925H80.1382ZM144.536 241.23C144.536 245.712 143.294 249.141 140.81 251.517C138.38 253.839 135.086 255 130.928 255H129.308C125.15 255 121.829 253.839 119.345 251.517C116.915 249.141 115.7 245.712 115.7 241.23V212.07C115.7 207.534 116.915 204.105 119.345 201.783C121.775 199.461 125.096 198.3 129.308 198.3H130.928C135.14 198.3 138.461 199.461 140.891 201.783C143.321 204.105 144.536 207.534 144.536 212.07V241.23ZM137.651 210.531C137.651 208.857 137.003 207.426 135.707 206.238C134.465 204.996 132.872 204.375 130.928 204.375H129.308C127.364 204.375 125.744 204.996 124.448 206.238C123.206 207.426 122.585 208.857 122.585 210.531V232.482L137.651 210.531ZM122.585 242.769C122.585 244.443 123.206 245.901 124.448 247.143C125.744 248.331 127.364 248.925 129.308 248.925H130.928C132.872 248.925 134.465 248.331 135.707 247.143C137.003 245.901 137.651 244.443 137.651 242.769V220.899L122.585 242.769ZM192.33 241.23C192.33 245.712 191.088 249.141 188.604 251.517C186.174 253.839 182.88 255 178.722 255H177.102C172.944 255 169.623 253.839 167.139 251.517C164.709 249.141 163.494 245.712 163.494 241.23V212.07C163.494 207.534 164.709 204.105 167.139 201.783C169.569 199.461 172.89 198.3 177.102 198.3H178.722C182.934 198.3 186.255 199.461 188.685 201.783C191.115 204.105 192.33 207.534 192.33 212.07V241.23ZM185.445 210.531C185.445 208.857 184.797 207.426 183.501 206.238C182.259 204.996 180.666 204.375 178.722 204.375H177.102C175.158 204.375 173.538 204.996 172.242 206.238C171 207.426 170.379 208.857 170.379 210.531V232.482L185.445 210.531ZM170.379 242.769C170.379 244.443 171 245.901 172.242 247.143C173.538 248.331 175.158 248.925 177.102 248.925H178.722C180.666 248.925 182.259 248.331 183.501 247.143C184.797 245.901 185.445 244.443 185.445 242.769V220.899L170.379 242.769ZM227.244 211.908C227.244 215.31 226.38 217.902 224.652 219.684C222.924 221.412 220.494 222.276 217.362 222.276H216.714C213.582 222.276 211.152 221.412 209.424 219.684C207.696 217.902 206.832 215.31 206.832 211.908V208.668C206.832 205.266 207.696 202.701 209.424 200.973C211.152 199.191 213.582 198.3 216.714 198.3H217.362C220.494 198.3 222.924 199.191 224.652 200.973C226.38 202.701 227.244 205.266 227.244 208.668V211.908ZM221.574 207.777C221.574 206.427 221.223 205.32 220.521 204.456C219.819 203.592 218.766 203.16 217.362 203.16H216.714C215.31 203.16 214.257 203.592 213.555 204.456C212.853 205.32 212.502 206.427 212.502 207.777V212.799C212.502 214.149 212.853 215.256 213.555 216.12C214.257 216.984 215.31 217.416 216.714 217.416H217.362C218.766 217.416 219.819 216.984 220.521 216.12C221.223 215.256 221.574 214.149 221.574 212.799V207.777ZM246.522 221.304V226.326L204.807 232.239V227.217L246.522 221.304ZM244.254 244.632C244.254 248.034 243.39 250.626 241.662 252.408C239.934 254.136 237.504 255 234.372 255H233.724C230.592 255 228.162 254.136 226.434 252.408C224.706 250.626 223.842 248.034 223.842 244.632V241.392C223.842 237.99 224.706 235.425 226.434 233.697C228.162 231.915 230.592 231.024 233.724 231.024H234.372C237.504 231.024 239.934 231.915 241.662 233.697C243.39 235.425 244.254 237.99 244.254 241.392V244.632ZM238.584 240.501C238.584 239.151 238.233 238.044 237.531 237.18C236.829 236.316 235.776 235.884 234.372 235.884H233.724C232.32 235.884 231.267 236.316 230.565 237.18C229.863 238.044 229.512 239.151 229.512 240.501V245.523C229.512 246.873 229.863 247.98 230.565 248.844C231.267 249.708 232.32 250.14 233.724 250.14H234.372C235.776 250.14 236.829 249.708 237.531 248.844C238.233 247.98 238.584 246.873 238.584 245.523V240.501Z" fill="#FF3131"/>
<g clip-path="url(#clip0_1103_57)">
<path d="M51 36H257.5V173.667H51V36Z" fill="#EE0000"/>
<path d="M78.5333 63.5333H257.5V91.0667H118.304V118.6H257.5V146.133H78.5333V63.5333Z" fill="white"/>
<path d="M170.219 104.833L51 173.667V36L170.219 104.833Z" fill="#0050F0"/>
<path d="M90.7398 81.8888L77.2577 123.4L112.565 97.7388H68.9151L104.231 123.4L90.7398 81.8888Z" fill="white"/>
</g>
<defs>
<clipPath id="clip0_1103_57">
<rect width="206.5" height="137.667" fill="white" transform="translate(51 36)"/>
</clipPath>
</defs>
</svg>
